HIERARCHY
ROOT Hips
{
	OFFSET 0.000000 0.000000 0.000000
	CHANNELS 6 Xposition Yposition Zposition Zrotation Yrotation Xrotation 
	JOINT LHipJoint
	{
		OFFSET 0.000000 0.000000 0.000000
		CHANNELS 3 Zrotation Yrotation Xrotation
		JOINT LeftUpLeg
		{
			OFFSET 1.363060 -1.794630 0.839290
			CHANNELS 3 Zrotation Yrotation Xrotation
			JOINT LeftLeg
			{
				OFFSET 2.448110 -6.726130 0.000000
				CHANNELS 3 Zrotation Yrotation Xrotation
				JOINT LeftFoot
				{
					OFFSET 2.562200 -7.039590 0.000000
					CHANNELS 3 Zrotation Yrotation Xrotation
					JOINT LeftToeBase
					{
						OFFSET 0.157640 -0.433110 2.322550
						CHANNELS 3 Zrotation Yrotation Xrotation
						End Site
						{
							OFFSET 0.000000 0.000000 0.000000
						}
					}
				}
			}
		}
	}
	JOINT RHipJoint
	{
		OFFSET 0.000000 0.000000 0.000000
		CHANNELS 3 Zrotation Yrotation Xrotation
		JOINT RightUpLeg
		{
			OFFSET -1.305520 -1.794630 0.839290
			CHANNELS 3 Zrotation Yrotation Xrotation
			JOINT RightLeg
			{
				OFFSET -2.542530 -6.985550 0.000000
				CHANNELS 3 Zrotation Yrotation Xrotation
				JOINT RightFoot
				{
					OFFSET -2.568260 -7.056230 0.000000
					CHANNELS 3 Zrotation Yrotation Xrotation
					JOINT RightToeBase
					{
						OFFSET -0.164730 -0.452590 2.363150
						CHANNELS 3 Zrotation Yrotation Xrotation
						End Site
						{
							OFFSET 0.000000 0.000000 0.000000
						}
					}
				}
			}
		}
	}
	JOINT LowerBack
	{
		OFFSET 0.000000 0.000000 0.000000
		CHANNELS 3 Zrotation Yrotation Xrotation
		JOINT Spine
		{
			OFFSET 0.028270 2.035590 -0.193380
			CHANNELS 3 Zrotation Yrotation Xrotation
			JOINT Spine1
			{
				OFFSET 0.056720 2.048850 -0.042750
				CHANNELS 3 Zrotation Yrotation Xrotation
				JOINT Neck
				{
					OFFSET 0.000000 0.000000 0.000000
					CHANNELS 3 Zrotation Yrotation Xrotation
					JOINT Neck1
					{
						OFFSET -0.054170 1.746240 0.172020
						CHANNELS 3 Zrotation Yrotation Xrotation
						JOINT Head
						{
							OFFSET 0.104070 1.761360 -0.123970
							CHANNELS 3 Zrotation Yrotation Xrotation
							End Site
							{
								OFFSET 0.000000 0.000000 0.000000
							}
						}
					}
				}
				JOINT LeftShoulder
				{
					OFFSET 0.000000 0.000000 0.000000
					CHANNELS 3 Zrotation Yrotation Xrotation
					JOINT LeftArm
					{
						OFFSET 3.362410 1.200890 -0.311210
						CHANNELS 3 Zrotation Yrotation Xrotation
						JOINT LeftForeArm
						{
							OFFSET 4.983000 -0.000000 -0.000000
							CHANNELS 3 Zrotation Yrotation Xrotation
							JOINT LeftHand
							{
								OFFSET 3.483560 -0.000000 -0.000000
								CHANNELS 3 Zrotation Yrotation Xrotation
								JOINT LeftFingerBase
								{
									OFFSET 0.000000 0.000000 0.000000
									CHANNELS 3 Zrotation Yrotation Xrotation
									JOINT LeftHandIndex1
									{
										OFFSET 0.715260 -0.000000 -0.000000
										CHANNELS 3 Zrotation Yrotation Xrotation
										End Site
										{
											OFFSET 0.000000 0.000000 0.000000
										}
									}
								}
								JOINT LThumb
								{
									OFFSET 0.000000 0.000000 0.000000
									CHANNELS 3 Zrotation Yrotation Xrotation
									End Site
									{
										OFFSET 0.000000 0.000000 0.000000
									}
								}
							}
						}
					}
				}
				JOINT RightShoulder
				{
					OFFSET 0.000000 0.000000 0.000000
					CHANNELS 3 Zrotation Yrotation Xrotation
					JOINT RightArm
					{
						OFFSET -3.136600 1.374050 -0.404650
						CHANNELS 3 Zrotation Yrotation Xrotation
						JOINT RightForeArm
						{
							OFFSET -5.241900 -0.000000 -0.000000
							CHANNELS 3 Zrotation Yrotation Xrotation
							JOINT RightHand
							{
								OFFSET -3.444170 -0.000000 -0.000000
								CHANNELS 3 Zrotation Yrotation Xrotation
								JOINT RightFingerBase
								{
									OFFSET 0.000000 0.000000 0.000000
									CHANNELS 3 Zrotation Yrotation Xrotation
									JOINT RightHandIndex1
									{
										OFFSET -0.622530 -0.000000 -0.000000
										CHANNELS 3 Zrotation Yrotation Xrotation
										End Site
										{
											OFFSET 0.000000 0.000000 0.000000
										}
									}
								}
								JOINT RThumb
								{
									OFFSET 0.000000 0.000000 0.000000
									CHANNELS 3 Zrotation Yrotation Xrotation
									End Site
									{
										OFFSET 0.000000 0.000000 0.000000
									}
								}
							}
						}
					}
				}
			}
		}
	}
}
MOTION
Frames: 11
Frame Time: 0.008333
7.905357 15.125382 3.250225 43.159589 -85.893623 3.734537 -10.758820 0.435546 -4.060524 -12.187060 6.149348 -54.493309 -1.891746 4.835052 64.129208 0.114995 -4.017683 -18.505123 0.493400 -0.000000 -81.638800 8.971640 1.849467 5.395373 7.336418 4.250398 -94.991448 3.707966 -4.191073 33.291976 -1.251364 -5.829855 5.980584 -3.174400 -0.000000 -58.963399 7.059794 -4.949264 2.327861 0.823989 -5.231047 -2.339507 -6.482529 -5.389385 0.124216 11.388169 -12.947284 -11.220351 -2.968882 -0.147031 -1.623427 0.000000 0.000000 0.000000 11.954268 0.847787 2.175541 -56.711272 -17.211924 6.788679 -0.072962 -86.060819 -0.001850 -0.923488 11.574518 -0.087006 -0.037469 0.272476 -0.000000 0.000000 0.000000 0.000000 0.000000 0.000000 0.000000 16.519846 -10.813198 4.211785 65.845691 -6.929306 -6.409713 1.872630 40.196894 0.006622 1.039545 2.551463 0.023880 0.056108 -0.174615 0.000000 0.000000 0.000000 0.000000 0.000000 0.000000 0.000000 
7.761719 15.146775 3.208349 44.176236 -86.096006 2.830775 -10.796883 0.410495 -4.036128 -11.809461 6.345414 -54.418586 -1.746540 4.832352 64.278326 0.040571 -4.091963 -16.780206 0.463201 0.000000 -83.455100 8.945732 1.782912 5.318883 7.511812 4.588360 -94.990537 3.620280 -4.333696 34.455253 -1.208419 -5.480109 5.207655 -2.948900 0.000000 -57.619300 7.206764 -4.870155 2.374293 0.867160 -5.145543 -2.352199 -6.424816 -5.304384 0.018100 11.261749 -12.452509 -11.114714 -2.987415 -0.149649 -1.599747 0.000000 0.000000 0.000000 11.840472 0.810932 2.255140 -57.567198 -16.287899 7.154107 -0.116799 -85.188911 -0.000947 -1.037573 11.484187 -0.097712 -0.035560 0.269251 0.000000 0.000000 0.000000 0.000000 0.000000 0.000000 0.000000 16.421159 -10.194285 4.206854 65.818946 -6.217081 -6.008503 1.858901 40.504310 0.006345 0.959185 2.434913 0.021084 0.056235 -0.178768 0.000000 0.000000 0.000000 0.000000 0.000000 0.000000 0.000000 
7.619139 15.170710 3.165658 45.266254 -86.293044 1.863887 -10.831806 0.380827 -4.017440 -11.469960 6.558642 -54.440944 -1.583475 4.840086 64.503630 -0.020530 -4.115298 -14.881492 0.403900 0.000000 -84.886599 8.919173 1.708261 5.256858 7.707657 4.935202 -94.897563 3.557202 -4.439045 35.444919 -1.178222 -5.142060 4.249918 -2.719300 -0.000001 -56.263500 7.323281 -4.789448 2.411589 0.903737 -5.058745 -2.364293 -6.364289 -5.217502 -0.076976 11.150101 -11.991739 -10.999909 -2.998079 -0.151723 -1.572084 0.000000 0.000000 0.000000 11.764871 0.769476 2.327627 -58.401203 -15.392526 7.456518 -0.164237 -84.249445 -0.000102 -1.147481 11.440728 -0.108322 -0.033480 0.265093 0.000000 0.000000 0.000000 0.000000 0.000000 0.000000 0.000000 16.315827 -9.615226 4.189795 65.779606 -5.477516 -5.512764 1.845345 40.941803 0.006168 0.916511 2.309847 0.019189 0.056251 -0.182936 0.000000 0.000000 0.000000 0.000000 0.000000 0.000000 0.000000 
7.477653 15.196678 3.121901 46.568943 -86.459025 0.698838 -10.858556 0.346308 -4.001355 -11.190441 6.761751 -54.561042 -1.404145 4.853406 64.806495 -0.061758 -4.063191 -12.838303 0.315500 -0.000000 -85.762200 8.899111 1.628159 5.211557 7.902213 5.257705 -94.736297 3.514528 -4.512208 36.260381 -1.160958 -4.831503 3.197079 -2.499800 -0.000000 -54.998400 7.397985 -4.713568 2.432856 0.931311 -4.977172 -2.377268 -6.302585 -5.135306 -0.159937 11.058542 -11.567129 -10.878177 -3.001672 -0.153298 -1.541017 0.000000 0.000000 0.000000 11.728535 0.724201 2.394124 -59.199635 -14.533579 7.700324 -0.213662 -83.265172 0.000619 -1.248461 11.444832 -0.118533 -0.031486 0.260099 0.000000 0.000000 0.000000 0.000000 0.000000 0.000000 0.000000 16.211281 -9.081308 4.159263 65.729378 -4.725905 -4.936785 1.829966 41.533277 0.006095 0.907764 2.189972 0.018194 0.056095 -0.187212 0.000000 0.000000 0.000000 0.000000 0.000000 0.000000 0.000000 
7.337532 15.224379 3.077461 48.055512 -86.584231 -0.636886 -10.876553 0.306433 -3.984301 -10.973672 6.940527 -54.782132 -1.211588 4.870986 65.190008 -0.079190 -3.923463 -10.689378 0.204700 0.000000 -85.938200 8.886699 1.544810 5.179311 8.099649 5.535768 -94.524733 3.491394 -4.560307 36.913515 -1.153569 -4.550771 2.120750 -2.297000 0.000000 -53.834000 7.435838 -4.642684 2.436929 0.950878 -4.901262 -2.391294 -6.240483 -5.058263 -0.230047 10.986351 -11.193872 -10.754777 -2.997395 -0.154250 -1.508157 0.000000 0.000000 0.000000 11.721461 0.675214 2.455108 -59.949621 -13.720509 7.891829 -0.263393 -82.261726 0.001151 -1.335117 11.501994 -0.127847 -0.029786 0.254263 0.000000 0.000000 0.000000 0.000000 0.000000 0.000000 0.000000 16.102802 -8.607698 4.116031 65.667788 -3.962573 -4.283478 1.811318 42.293478 0.006089 0.912193 2.088141 0.017501 0.055919 -0.191744 0.000000 0.000000 0.000000 0.000000 0.000000 0.000000 0.000000 
7.198777 15.253358 3.032612 49.734312 -86.659654 -2.146644 -10.884341 0.261018 -3.963007 -10.826245 7.077464 -55.104999 -1.011025 4.890445 65.652398 -0.069833 -3.682835 -8.499259 0.083500 0.000000 -85.275700 8.884089 1.460144 5.158595 8.294804 5.753038 -94.286355 3.485154 -4.589920 37.418432 -1.152457 -4.299488 1.086388 -2.115299 0.000000 -52.815301 7.438144 -4.577922 2.421578 0.962708 -4.832311 -2.407016 -6.178583 -4.987730 -0.287815 10.932987 -10.878212 -10.633703 -2.985243 -0.154532 -1.474891 0.000000 0.000000 0.000000 11.734698 0.624694 2.511699 -60.637251 -12.958052 8.039424 -0.311766 -81.268967 0.001422 -1.399489 11.610756 -0.135761 -0.028627 0.247726 0.000000 0.000000 0.000000 0.000000 0.000000 0.000000 0.000000 15.988065 -8.200239 4.060825 65.594046 -3.193812 -3.559969 1.787381 43.234619 0.006095 0.906949 2.016183 0.016909 0.055872 -0.196703 0.000000 0.000000 0.000000 0.000000 0.000000 0.000000 0.000000 
7.061695 15.283315 2.987701 51.582189 -86.681924 -3.805563 -10.881173 0.210108 -3.935100 -10.751303 7.158665 -55.528427 -0.808876 4.910408 66.189890 -0.033150 -3.332704 -6.352009 -0.031500 -0.000000 -83.666000 8.891930 1.375918 5.147300 8.484414 5.901103 -94.041497 3.493140 -4.606857 37.791822 -1.153358 -4.072845 0.143145 -1.956500 -0.000000 -51.976900 7.407559 -4.519170 2.386541 0.967363 -4.770287 -2.424953 -6.116976 -4.923738 -0.335037 10.895981 -10.621618 -10.517926 -2.965352 -0.154122 -1.442344 0.000000 0.000000 0.000000 11.758564 0.574820 2.565027 -61.250199 -12.247949 8.152417 -0.357248 -80.318122 0.001372 -1.433476 11.763956 -0.141175 -0.028215 0.240727 0.000000 0.000000 0.000000 0.000000 0.000000 0.000000 0.000000 15.862082 -7.858687 3.994903 65.508166 -2.426820 -2.776149 1.756249 44.364834 0.006043 0.868014 1.984403 0.016018 0.056135 -0.202282 0.000000 0.000000 0.000000 0.000000 0.000000 0.000000 0.000000 
6.926599 15.314047 2.942994 53.589021 -86.650402 -5.602723 -10.866624 0.154042 -3.900099 -10.752250 7.173843 -56.046576 -0.611987 4.929984 66.795513 0.028835 -2.868845 -4.345575 -0.121600 -0.000000 -81.056999 8.910334 1.293595 5.143475 8.661815 5.977288 -93.807579 3.512048 -4.615809 38.052000 -1.151897 -3.862979 -0.675726 -1.819900 0.000000 -51.367600 7.344980 -4.466368 2.334032 0.964981 -4.714975 -2.445186 -6.055505 -4.866113 -0.374328 10.872810 -10.420627 -10.409233 -2.938215 -0.153034 -1.411375 0.000000 0.000000 0.000000 11.785799 0.527587 2.616165 -61.778311 -11.588995 8.240593 -0.398520 -79.439462 0.000978 -1.430609 11.948515 -0.143187 -0.028686 0.233589 0.000000 0.000000 0.000000 0.000000 0.000000 0.000000 0.000000 15.720968 -7.577560 3.919660 65.410014 -1.668814 -1.943394 1.716239 45.685960 0.005861 0.773165 2.002801 0.014330 0.056883 -0.208686 0.000000 0.000000 0.000000 0.000000 0.000000 0.000000 0.000000 
6.793595 15.345188 2.899053 55.630360 -86.578007 -7.409356 -10.842452 0.094482 -3.856939 -10.820495 7.124871 -56.661374 -0.426177 4.951667 67.464760 0.111413 -2.297111 -2.575323 -0.170900 0.000000 -77.483100 8.936492 1.213583 5.145582 8.834283 5.994830 -93.596396 3.541972 -4.620427 38.219279 -1.144016 -3.656836 -1.369674 -1.701700 0.000000 -50.928401 7.262441 -4.415619 2.265034 0.958199 -4.662723 -2.468097 -5.993754 -4.811274 -0.408257 10.856714 -10.271945 -10.309010 -2.903946 -0.151263 -1.382687 0.000000 0.000000 0.000000 11.802977 0.487167 2.666366 -62.213119 -10.978755 8.313991 -0.434525 -78.660402 0.000224 -1.389716 12.154069 -0.141397 -0.030066 0.226546 0.000000 0.000000 0.000000 0.000000 0.000000 0.000000 0.000000 15.554665 -7.349681 3.836939 65.298495 -0.925074 -1.075076 1.666368 47.197120 0.005465 0.602622 2.071322 0.011444 0.058337 -0.216068 0.000000 0.000000 0.000000 0.000000 0.000000 0.000000 0.000000 
6.663094 15.376670 2.856070 57.681675 -86.471989 -9.202873 -10.809074 0.032432 -3.807812 -10.954842 7.014041 -57.365079 -0.256019 4.976625 68.185832 0.208991 -1.626263 -1.127175 -0.170000 -0.000000 -73.066800 8.968811 1.136316 5.152390 8.996754 5.964375 -93.412951 3.580549 -4.622229 38.309180 -1.127289 -3.445531 -1.942461 -1.598400 -0.000000 -50.640500 7.162561 -4.365819 2.184297 0.947531 -4.612117 -2.493293 -5.931425 -4.757829 -0.439974 10.844085 -10.164557 -10.216464 -2.863440 -0.148887 -1.356359 0.000000 0.000000 0.000000 11.805964 0.455373 2.716688 -62.550683 -10.412214 8.380680 -0.464584 -78.002081 -0.000826 -1.313530 12.366097 -0.135705 -0.032291 0.219875 0.000000 0.000000 0.000000 0.000000 0.000000 0.000000 0.000000 15.359408 -7.161402 3.748088 65.173679 -0.202375 -0.188265 1.606003 48.890397 0.004787 0.345119 2.193414 0.006560 0.060626 -0.224580 0.000000 0.000000 0.000000 0.000000 0.000000 0.000000 0.000000 
6.535271 15.408306 2.814274 59.699193 -86.343978 -10.938988 -10.767741 -0.030918 -3.754601 -11.147915 6.847695 -58.150463 -0.104359 5.006604 68.944648 0.315517 -0.874458 -0.065330 -0.118700 0.000000 -68.061099 9.004681 1.061261 5.163158 9.149420 5.903517 -93.256319 3.626834 -4.621265 38.333668 -1.100769 -3.221965 -2.412855 -1.506100 -0.000000 -50.498400 7.051437 -4.314661 2.095928 0.934286 -4.560674 -2.520355 -5.868245 -4.703319 -0.471975 10.830448 -10.087586 -10.129961 -2.817575 -0.145994 -1.332185 0.000000 0.000000 0.000000 11.790431 0.434377 2.767809 -62.790183 -9.884901 8.446594 -0.488316 -77.479780 -0.002092 -1.210189 12.565511 -0.126611 -0.035189 0.213891 0.000000 0.000000 0.000000 0.000000 0.000000 0.000000 0.000000 15.131060 -6.999338 3.654480 65.034515 0.496342 0.699073 1.535507 50.751064 0.003788 -0.001362 2.370365 -0.000922 0.063830 -0.234338 0.000000 0.000000 0.000000 0.000000 0.000000 0.000000 0.000000 
